<?xml version="1.0" encoding="UTF-8" standalone="no"?>
<!-- Created with Inkscape (http://www.inkscape.org/) -->

<!-- Created by jefParil -->

<!-- <a rel="license" href="http://creativecommons.org/licenses/by-nc/4.0/"><img alt="Creative Commons License" style="border-width:0" src="https://i.creativecommons.org/l/by-nc/4.0/88x31.png" /></a><br />This work is licensed under a <a rel="license" href="http://creativecommons.org/licenses/by-nc/4.0/">Creative Commons Attribution-NonCommercial 4.0 International License</a>. -->

<svg
   xmlns:dc="http://purl.org/dc/elements/1.1/"
   xmlns:cc="http://creativecommons.org/ns#"
   xmlns:rdf="http://www.w3.org/1999/02/22-rdf-syntax-ns#"
   xmlns:svg="http://www.w3.org/2000/svg"
   xmlns="http://www.w3.org/2000/svg"
   xmlns:sodipodi="http://sodipodi.sourceforge.net/DTD/sodipodi-0.dtd"
   xmlns:inkscape="http://www.inkscape.org/namespaces/inkscape"
   width="2000"
   height="2000"
   viewBox="0 0 529.16665 529.16668"
   version="1.1"
   id="svg8"
   sodipodi:docname="marchantia_001.svg"
   inkscape:version="0.92.4 (unknown)"
   inkscape:export-filename="/home/student.unimelb.edu.au/jparil/marchantia.png"
   inkscape:export-xdpi="90"
   inkscape:export-ydpi="90">
  <defs
     id="defs2">
    <clipPath
       clipPathUnits="userSpaceOnUse"
       id="clipPath821">
      <circle
         r="264.58337"
         cy="32.416653"
         cx="264.58337"
         id="circle823"
         style="opacity:1;fill:#ffb5b5;fill-opacity:1;fill-rule:nonzero;stroke:none;stroke-width:0.3671532;stroke-miterlimit:4;stroke-dasharray:none;stroke-dashoffset:0;stroke-opacity:1" />
    </clipPath>
    <clipPath
       clipPathUnits="userSpaceOnUse"
       id="clipPath1037">
      <rect
         y="30.238077"
         x="442.98813"
         height="294.82144"
         width="63.5"
         id="rect1039"
         style="opacity:1;fill:#fffac9;fill-opacity:1;fill-rule:nonzero;stroke:none;stroke-width:5;stroke-miterlimit:4;stroke-dasharray:none;stroke-dashoffset:0;stroke-opacity:1" />
    </clipPath>
    <clipPath
       clipPathUnits="userSpaceOnUse"
       id="clipPath1139">
      <rect
         style="opacity:1;fill:#fffac9;fill-opacity:1;fill-rule:nonzero;stroke:none;stroke-width:3.53553391;stroke-miterlimit:4;stroke-dasharray:none;stroke-dashoffset:0;stroke-opacity:1"
         id="rect1141"
         width="31.75"
         height="294.82144"
         x="604.53113"
         y="16.630957" />
    </clipPath>
    <clipPath
       clipPathUnits="userSpaceOnUse"
       id="clipPath1143">
      <rect
         style="opacity:1;fill:#fffac9;fill-opacity:1;fill-rule:nonzero;stroke:none;stroke-width:2.18217897;stroke-miterlimit:4;stroke-dasharray:none;stroke-dashoffset:0;stroke-opacity:1"
         id="rect1145"
         width="12.095238"
         height="294.82144"
         x="643.38739"
         y="37.797626" />
    </clipPath>
    <clipPath
       clipPathUnits="userSpaceOnUse"
       id="clipPath1147">
      <rect
         style="opacity:1;fill:#fffac9;fill-opacity:1;fill-rule:nonzero;stroke:none;stroke-width:2.18217897;stroke-miterlimit:4;stroke-dasharray:none;stroke-dashoffset:0;stroke-opacity:1"
         id="rect1149"
         width="12.095238"
         height="294.82144"
         x="584.8006"
         y="37.797626" />
    </clipPath>
    <clipPath
       clipPathUnits="userSpaceOnUse"
       id="clipPath1166">
      <rect
         style="opacity:1;fill:#fffac9;fill-opacity:1;fill-rule:nonzero;stroke:none;stroke-width:5;stroke-miterlimit:4;stroke-dasharray:none;stroke-dashoffset:0;stroke-opacity:1"
         id="rect1168"
         width="198.05951"
         height="61.988094"
         x="-353.78568"
         y="-169.33333" />
    </clipPath>
    <clipPath
       clipPathUnits="userSpaceOnUse"
       id="clipPath1194">
      <rect
         style="opacity:1;fill:#fffac9;fill-opacity:1;fill-rule:nonzero;stroke:none;stroke-width:4.10997486;stroke-miterlimit:4;stroke-dasharray:none;stroke-dashoffset:0;stroke-opacity:1"
         id="rect1196"
         width="264.58337"
         height="27.214285"
         x="-401.83466"
         y="-14.817155" />
    </clipPath>
    <clipPath
       clipPathUnits="userSpaceOnUse"
       id="clipPath1344">
      <rect
         y="-41.805096"
         x="-401.83469"
         height="9.0714273"
         width="264.58337"
         id="rect1346"
         style="opacity:1;fill:#fffac9;fill-opacity:1;fill-rule:nonzero;stroke:none;stroke-width:2.372895;stroke-miterlimit:4;stroke-dasharray:none;stroke-dashoffset:0;stroke-opacity:1" />
    </clipPath>
    <clipPath
       clipPathUnits="userSpaceOnUse"
       id="clipPath1348">
      <rect
         y="-41.805096"
         x="-401.83469"
         height="9.0714273"
         width="264.58337"
         id="rect1350"
         style="opacity:1;fill:#fffac9;fill-opacity:1;fill-rule:nonzero;stroke:none;stroke-width:2.372895;stroke-miterlimit:4;stroke-dasharray:none;stroke-dashoffset:0;stroke-opacity:1" />
    </clipPath>
    <clipPath
       clipPathUnits="userSpaceOnUse"
       id="clipPath1408">
      <rect
         y="42.105625"
         x="-612.32141"
         height="9.0714273"
         width="264.58337"
         id="rect1410"
         style="opacity:1;fill:#fffac9;fill-opacity:1;fill-rule:nonzero;stroke:none;stroke-width:2.372895;stroke-miterlimit:4;stroke-dasharray:none;stroke-dashoffset:0;stroke-opacity:1" />
    </clipPath>
    <clipPath
       clipPathUnits="userSpaceOnUse"
       id="clipPath1412">
      <rect
         y="42.105625"
         x="-612.32141"
         height="9.0714273"
         width="264.58337"
         id="rect1414"
         style="opacity:1;fill:#fffac9;fill-opacity:1;fill-rule:nonzero;stroke:none;stroke-width:2.372895;stroke-miterlimit:4;stroke-dasharray:none;stroke-dashoffset:0;stroke-opacity:1" />
    </clipPath>
    <clipPath
       clipPathUnits="userSpaceOnUse"
       id="clipPath1416">
      <rect
         y="42.105625"
         x="-612.32141"
         height="9.0714273"
         width="264.58337"
         id="rect1418"
         style="opacity:1;fill:#fffac9;fill-opacity:1;fill-rule:nonzero;stroke:none;stroke-width:2.372895;stroke-miterlimit:4;stroke-dasharray:none;stroke-dashoffset:0;stroke-opacity:1" />
    </clipPath>
    <clipPath
       clipPathUnits="userSpaceOnUse"
       id="clipPath1420">
      <rect
         y="42.105625"
         x="-612.32141"
         height="9.0714273"
         width="264.58337"
         id="rect1422"
         style="opacity:1;fill:#fffac9;fill-opacity:1;fill-rule:nonzero;stroke:none;stroke-width:2.372895;stroke-miterlimit:4;stroke-dasharray:none;stroke-dashoffset:0;stroke-opacity:1" />
    </clipPath>
    <clipPath
       clipPathUnits="userSpaceOnUse"
       id="clipPath1424">
      <rect
         y="521.38031"
         x="-627.44043"
         height="9.0714273"
         width="264.58337"
         id="rect1426"
         style="opacity:1;fill:#fffac9;fill-opacity:1;fill-rule:nonzero;stroke:none;stroke-width:2.372895;stroke-miterlimit:4;stroke-dasharray:none;stroke-dashoffset:0;stroke-opacity:1" />
    </clipPath>
    <clipPath
       clipPathUnits="userSpaceOnUse"
       id="clipPath1428">
      <rect
         y="521.38031"
         x="-627.44043"
         height="9.0714273"
         width="264.58337"
         id="rect1430"
         style="opacity:1;fill:#fffac9;fill-opacity:1;fill-rule:nonzero;stroke:none;stroke-width:2.372895;stroke-miterlimit:4;stroke-dasharray:none;stroke-dashoffset:0;stroke-opacity:1" />
    </clipPath>
    <clipPath
       clipPathUnits="userSpaceOnUse"
       id="clipPath1432">
      <rect
         y="521.38031"
         x="-627.44043"
         height="9.0714273"
         width="264.58337"
         id="rect1434"
         style="opacity:1;fill:#fffac9;fill-opacity:1;fill-rule:nonzero;stroke:none;stroke-width:2.372895;stroke-miterlimit:4;stroke-dasharray:none;stroke-dashoffset:0;stroke-opacity:1" />
    </clipPath>
    <clipPath
       clipPathUnits="userSpaceOnUse"
       id="clipPath1436">
      <rect
         y="521.38031"
         x="-627.44043"
         height="9.0714273"
         width="264.58337"
         id="rect1438"
         style="opacity:1;fill:#fffac9;fill-opacity:1;fill-rule:nonzero;stroke:none;stroke-width:2.372895;stroke-miterlimit:4;stroke-dasharray:none;stroke-dashoffset:0;stroke-opacity:1" />
    </clipPath>
    <clipPath
       clipPathUnits="userSpaceOnUse"
       id="clipPath821-2">
      <circle
         r="264.58337"
         cy="32.416653"
         cx="264.58337"
         id="circle823-9"
         style="opacity:1;fill:#ffb5b5;fill-opacity:1;fill-rule:nonzero;stroke:none;stroke-width:0.3671532;stroke-miterlimit:4;stroke-dasharray:none;stroke-dashoffset:0;stroke-opacity:1" />
    </clipPath>
    <clipPath
       clipPathUnits="userSpaceOnUse"
       id="clipPath1608">
      <rect
         transform="translate(0,232.16668)"
         clip-path="url(#clipPath821-2)"
         y="32.416645"
         x="-1.0172526e-05"
         height="264.58334"
         width="529.16669"
         id="rect1610"
         style="display:inline;opacity:1;fill:#92e38a;fill-opacity:0.51072962;fill-rule:nonzero;stroke:none;stroke-width:0.26458332;stroke-miterlimit:4;stroke-dasharray:none;stroke-dashoffset:0;stroke-opacity:1" />
    </clipPath>
    <clipPath
       clipPathUnits="userSpaceOnUse"
       id="clipPath964">
      <path
         sodipodi:nodetypes="sssss"
         inkscape:connector-curvature="0"
         id="path966"
         d="m 290.30917,366.90779 c -6.15154,0.94205 -24.78477,9.31312 -11.51898,21.32912 9.89208,8.96011 30.85809,10.01929 45.23817,7.21648 14.1166,-2.75145 5.48608,-27.53434 -5.44217,-26.8265 -9.06142,0.58693 -16.12151,-3.58058 -28.27702,-1.7191 z"
         style="fill:#579a3d;fill-opacity:1;fill-rule:evenodd;stroke:none;stroke-width:0.27009323px;stroke-linecap:butt;stroke-linejoin:miter;stroke-opacity:1" />
    </clipPath>
    <clipPath
       clipPathUnits="userSpaceOnUse"
       id="clipPath1002">
      <path
         sodipodi:nodetypes="ccssccsscccaassscccc"
         inkscape:connector-curvature="0"
         d="m 12.601074,294.37742 c 0,0 32.131674,-10.21595 48.389601,-18.37032 41.426615,-4.14251 38.245905,0.0434 80.961375,-11.46235 28.96681,-7.80247 78.2296,-0.60515 82.68789,11.50148 5.74972,15.61354 14.91825,17.92118 3.87587,30.3674 -31.01093,1.45828 -84.79603,6.329 -130.168061,0.42981 83.388971,14.70103 194.319311,-10.39514 232.558531,37.46195 14.65209,18.33737 -2.54304,58.09929 -28.41173,61.662 -56.001,7.71261 -111.20286,-28.08353 -163.40058,-47.04143 0,0 -29.99082,6.23652 -0.95565,24.35998 43.27113,41.78253 124.18689,28.80377 161.63672,63.2998 9.36893,9.3798 13.96783,24.45631 12.7857,37.66083 -2.0752,23.18003 -16.41091,45.64175 -33.83116,61.07404 -15.9155,14.09923 -37.88268,25.02118 -59.11839,23.95498 -19.89604,-0.99892 -48.6738,-19.83224 -52.86229,-27.87884 -4.18847,-8.04656 -45.67894,-43.5492 -59.74181,-55.83046 C 92.944238,473.28503 61.154053,410.57502 45.107086,401.03101 29.060111,391.48703 -84.940149,305.09551 -84.940149,305.09551 l 11.087592,-45.8264 z"
         style="fill:#51c922;fill-opacity:1;fill-rule:evenodd;stroke:none;stroke-width:0.26458332px;stroke-linecap:butt;stroke-linejoin:miter;stroke-opacity:1"
         id="path1004" />
    </clipPath>
    <clipPath
       clipPathUnits="userSpaceOnUse"
       id="clipPath1014">
      <path
         sodipodi:nodetypes="ccssccsscccaaccccc"
         inkscape:connector-curvature="0"
         d="m 100.54706,276.96054 c 0,0 27.57195,-19.40612 40.62497,-32.07232 38.2631,-16.40914 36.48849,-11.46042 73.76639,-35.27958 25.27942,-16.15258 74.42621,-24.10344 82.319,-13.89801 10.17907,13.16163 19.61716,12.60515 12.82895,27.79603 -29.13681,10.71681 -78.9673,31.53707 -124.01306,39.55588 83.94983,-11.05741 182.19772,-68.35236 233.05902,-34.2105 19.4885,13.08211 15.04712,56.17454 -8.55263,67.35191 -51.08916,24.19699 -114.50074,6.65901 -169.98341,4.27633 0,0 -26.72695,14.96708 6.41447,23.51971 53.83345,26.83523 127.10031,-9.87684 173.19065,11.75986 11.75604,6.12804 20.67607,19.12358 23.51971,32.07234 4.99189,22.73107 -1.92519,48.46423 -13.89801,68.42099 -10.93861,18.23288 -29.00416,33.90751 -49.1776,40.62497 C 290.06316,490.40123 226.68464,406.33524 163.62267,368.90127 145.44834,364.62496 10.744504,316.51644 10.744504,316.51644 L 7.5372706,269.47701 Z"
         style="fill:#51c922;fill-opacity:1;fill-rule:evenodd;stroke:none;stroke-width:0.26458332px;stroke-linecap:butt;stroke-linejoin:miter;stroke-opacity:1"
         id="path1016" />
    </clipPath>
  </defs>
  <sodipodi:namedview
     id="base"
     pagecolor="#ffffff"
     bordercolor="#666666"
     borderopacity="1.0"
     inkscape:pageopacity="0.0"
     inkscape:pageshadow="2"
     inkscape:zoom="0.24748738"
     inkscape:cx="76.365439"
     inkscape:cy="1129.1793"
     inkscape:document-units="mm"
     inkscape:current-layer="g1045"
     showgrid="false"
     inkscape:pagecheckerboard="true"
     units="px"
     inkscape:window-width="1920"
     inkscape:window-height="1043"
     inkscape:window-x="0"
     inkscape:window-y="0"
     inkscape:window-maximized="1"
     inkscape:snap-global="false" />
  <metadata
     id="metadata5">
    <rdf:RDF>
      <cc:Work
         rdf:about="">
        <dc:format>image/svg+xml</dc:format>
        <dc:type
           rdf:resource="http://purl.org/dc/dcmitype/StillImage" />
        <dc:title />
      </cc:Work>
    </rdf:RDF>
  </metadata>
  <g
     inkscape:label="base"
     inkscape:groupmode="layer"
     id="layer1"
     transform="translate(0,232.16668)"
     style="display:inline">
    <circle
       style="opacity:1;fill:#ffffcc;fill-opacity:1;fill-rule:nonzero;stroke:none;stroke-width:0.3671532;stroke-miterlimit:4;stroke-dasharray:none;stroke-dashoffset:0;stroke-opacity:1"
       id="path815"
       cx="264.58334"
       cy="32.416653"
       r="264.58334" />
    <rect
       style="opacity:1;fill:#a1dab4;fill-opacity:1;fill-rule:nonzero;stroke:none;stroke-width:0.26458332;stroke-miterlimit:4;stroke-dasharray:none;stroke-dashoffset:0;stroke-opacity:1"
       id="rect817"
       width="529.16669"
       height="264.58334"
       x="-1.0172526e-05"
       y="32.416645"
       clip-path="url(#clipPath821)" />
  </g>
  <g
     inkscape:groupmode="layer"
     id="layer2"
     inkscape:label="marachantia"
     style="display:inline">
    <g
       id="g1045"
       transform="translate(39.555888,-4.2763123)">
      <g
         id="g1074"
         transform="matrix(1.1117466,0,0,1.1117466,-46.775866,-54.116601)">
        <path
           style="fill:#51c922;fill-opacity:1;fill-rule:evenodd;stroke:none;stroke-width:0.26458332px;stroke-linecap:butt;stroke-linejoin:miter;stroke-opacity:1"
           d="m 100.54706,276.96054 c 0,0 27.57195,-19.40612 40.62497,-32.07232 38.2631,-16.40914 36.48849,-11.46042 73.76639,-35.27958 25.27942,-16.15258 74.42621,-24.10344 82.319,-13.89801 10.17908,13.16163 19.61715,12.60515 12.82895,27.79603 -29.1368,10.71681 -78.9673,31.53707 -124.01306,39.55588 83.94984,-11.05741 182.19773,-68.35236 233.05903,-34.2105 19.48848,13.08211 15.04712,56.17453 -8.55263,67.35191 -51.08917,24.197 -114.50076,6.65901 -169.98342,4.27633 0,0 -26.72695,14.96708 6.41447,23.51971 53.83346,26.83524 127.10032,-9.87684 173.19066,11.75986 11.75603,6.12803 20.67607,19.12357 23.51971,32.07234 4.99189,22.73107 -1.92519,48.46422 -13.89801,68.42098 -10.93861,18.23289 -28.6043,35.25553 -49.1776,40.62498 -19.27543,5.03072 -52.38483,-4.27631 -58.79931,-10.69079 -6.41445,-6.41445 -56.66112,-27.79601 -73.76637,-35.27956 C 230.97459,423.42424 181.797,373.17759 163.62267,368.90126 145.44834,364.62496 10.744504,316.51644 10.744504,316.51644 L 7.5372705,269.47701 Z"
           id="path955"
           inkscape:connector-curvature="0"
           sodipodi:nodetypes="ccssccsscccaassscccc" />
        <rect
           style="opacity:1;fill:#62ad43;fill-opacity:1;fill-rule:evenodd;stroke:none;stroke-width:1.6749599;stroke-miterlimit:4;stroke-dasharray:none;stroke-dashoffset:100;stroke-opacity:1"
           width="531.0155"
           height="200.80168"
           x="-137.05467"
           y="111.16821"
           id="rect994"
           transform="rotate(-17.501697)"
           clip-path="url(#clipPath1002)" />
        <path
           style="fill:#63975c;fill-opacity:1;fill-rule:evenodd;stroke:none;stroke-width:0.26458332px;stroke-linecap:butt;stroke-linejoin:miter;stroke-opacity:1"
           d="m 367.33722,430.40743 c 0,0 8.31545,0.75594 7.9375,-0.75594 -3.3365,-0.57735 -13.61201,-49.46997 -7.01232,-82.79092 4.86649,-24.57025 -11.01175,-44.86895 -8.10674,-41.56324 l -4.15773,0.37796 c 3.65691,12.52723 10.9666,22.93475 6.69945,40.81744 -6.72324,28.1756 -2.11204,58.60242 4.63984,83.9147 z"
           id="path860"
           inkscape:connector-curvature="0"
           sodipodi:nodetypes="ccsccsc" />
        <path
           style="fill:none;fill-rule:evenodd;stroke:#48904f;stroke-width:1.32291663;stroke-linecap:butt;stroke-linejoin:miter;stroke-miterlimit:4;stroke-dasharray:none;stroke-opacity:1"
           d="m 107.44235,297.17672 c 24.31858,-7.26019 41.95334,12.16295 63.61014,-1.06908 29.11827,-17.79089 153.94724,-9.08716 153.94724,-9.08716"
           id="path992"
           inkscape:connector-curvature="0"
           sodipodi:nodetypes="csc" />
        <g
           id="g868"
           transform="translate(13.551509,-12.958637)">
          <path
             sodipodi:nodetypes="aaaaa"
             inkscape:connector-curvature="0"
             id="path864"
             d="m 331.70419,308.32949 c 6.33253,-5.17997 20.59225,-4.59268 26.12479,1.23099 4.26141,4.48563 2.60304,13.84449 -2.84997,17.23317 -6.40327,3.97921 -18.22602,1.54249 -23.27482,-3.69282 -3.64831,-3.78306 -4.1388,-11.38583 0,-14.77134 z"
             style="fill:#6a8437;fill-opacity:1;fill-rule:evenodd;stroke:none;stroke-width:0.30903068px;stroke-linecap:butt;stroke-linejoin:miter;stroke-opacity:1" />
          <path
             sodipodi:nodetypes="csscsscsscsscsscsscsscsssscssc"
             id="path862"
             inkscape:connector-curvature="0"
             d="m 342.06844,306.53869 c 0,0 -17.47907,-15.16199 -24.94642,-13.98513 -2.58976,0.40815 -3.91931,3.87549 -1.51191,4.91369 4.30859,1.85809 21.21411,10.51216 20.4107,11.71727 0,0 -27.66726,-8.03022 -36.66369,-2.64583 -3.50655,2.09869 -6.53013,5.37245 3.02382,5.29168 7.77291,-0.0657 32.44563,-1.22618 32.12799,2.26784 1.49122,3.35523 -39.69472,2.21339 -44.97917,11.71725 -3.10626,5.58647 -0.79419,7.99661 10.20534,3.40179 8.07076,-3.37139 41.03536,-11.12255 40.44345,-13.22915 1.85538,1.4843 -16.86848,18.91679 -17.00892,25.70236 -0.24408,11.79372 17.9098,10.00443 16.25298,0 -1.74269,-10.52294 4.12302,-25.53522 4.91368,-25.32438 0.51634,-0.32271 14.31877,21.36154 18.52084,26.45831 5.00177,6.06674 17.57458,-1.27653 9.4494,-9.07143 -7.09049,-6.80227 -22.4962,-19.08116 -22.30059,-19.27677 0.90937,-0.77946 26.09668,6.04692 29.10417,12.4732 2.52028,5.38522 10.25139,-2.201 5.29167,-7.93747 -7.61773,-8.81075 -33.6399,-9.44941 -33.6399,-9.44941 1.31627,-3.94881 31.20184,-2.55569 35.52976,1.88986 2.38873,2.45365 4.346,-3.37753 -0.37795,-7.18153 -8.64946,-6.96506 -33.26191,1.88987 -33.26191,1.88987 0,0 8.86794,-13.62984 14.74107,-13.60714 2.79745,0.0108 6.32724,5.45712 9.07142,4.91368 3.0525,-0.60449 3.33818,-1.6138 2.26786,-4.53571 -1.82269,-4.97583 -9.97313,-6.17885 -15.11904,-4.91368 -7.87321,1.9357 -17.00895,17.38691 -17.00895,17.38691 -0.26424,1.05697 -1.93741,-11.57888 -6.80355,-16.25299 -1.99489,-1.91616 -6.224,-0.1682 -4.91369,2.26786 2.84904,5.2968 7.70189,15.11905 7.18154,15.11905 z"
             style="fill:#78a126;fill-opacity:1;fill-rule:evenodd;stroke:none;stroke-width:0.26458332px;stroke-linecap:butt;stroke-linejoin:miter;stroke-opacity:1" />
        </g>
        <path
           sodipodi:nodetypes="ccsccsc"
           inkscape:connector-curvature="0"
           id="path882"
           d="m 381.4517,257.26663 c 0,0 7.1913,0.42291 6.91304,-0.6902 -2.32626,-0.45112 -2.95736,-34.17341 0.44986,-58.4155 2.56667,-18.2617 2.44978,-33.3019 4.58859,-30.86808 l -5.33291,-0.25627 c 1.72848,7.05436 -1.34542,15.60542 -2.95201,30.45262 -2.06073,19.04428 -1.96404,37.58293 -3.66657,59.77743 z"
           style="fill:#63975c;fill-opacity:1;fill-rule:evenodd;stroke:none;stroke-width:0.19479868px;stroke-linecap:butt;stroke-linejoin:miter;stroke-opacity:1" />
        <g
           transform="matrix(0.82310277,0,0,0.82310277,104.51873,-90.232901)"
           id="g874">
          <path
             style="fill:#6a8437;fill-opacity:1;fill-rule:evenodd;stroke:none;stroke-width:0.30903068px;stroke-linecap:butt;stroke-linejoin:miter;stroke-opacity:1"
             d="m 331.70419,308.32949 c 5.71473,-6.58362 20.40764,-5.35053 26.12479,1.23099 1.67111,1.92376 1.02586,5.74761 -0.71181,7.61147 -5.30023,5.68512 -16.63533,8.24131 -23.00755,3.79072 -3.5144,-2.45457 -5.21544,-9.39593 -2.40543,-12.63318 z"
             id="path870"
             inkscape:connector-curvature="0"
             sodipodi:nodetypes="aaaaa" />
          <path
             style="fill:#78a126;fill-opacity:1;fill-rule:evenodd;stroke:none;stroke-width:0.26458332px;stroke-linecap:butt;stroke-linejoin:miter;stroke-opacity:1"
             d="m 342.06844,306.53869 c 0,0 -21.50872,-7.53993 -28.72618,-5.29168 -3.40566,1.06087 -6.77687,10.0169 3.77975,4.53572 4.16431,-2.16218 19.70221,2.19668 18.8988,3.40179 -1.33203,-2.22004 -27.83849,-2.89795 -35.15179,5.29167 -2.72198,3.04815 -5.01822,6.50638 4.53573,6.42561 7.77291,-0.0657 29.42182,-10.29761 29.10418,-6.80359 1.49122,3.35523 -23.06377,4.85922 -28.34822,14.36308 -3.10626,5.58647 -5.70788,9.88649 5.29165,5.29167 8.07076,-3.37139 29.3181,-15.65826 28.72619,-17.76486 1.85538,1.4843 -8.56117,10.60115 -8.69344,17.38688 -0.24408,12.52168 7.93233,19.94762 10.96131,-1.5119 1.42424,-10.09038 1.73293,-15.60222 1.88987,-15.497 0.51634,-0.32271 19.05451,12.01183 22.3006,17.76486 13.1921,23.38025 13.44471,-6.82005 6.04762,-7.9375 -2.67667,-0.40436 -22.87418,-11.52164 -22.67857,-11.71725 0.90937,-0.77946 26.09668,6.04692 29.10417,12.4732 2.52028,5.38522 10.25139,-2.201 5.29167,-7.93747 -7.61773,-8.81075 -33.6399,-9.44941 -33.6399,-9.44941 1.31627,-3.94881 31.20184,-2.55569 35.52976,1.88986 2.38873,2.45365 4.346,-3.37753 -0.37795,-7.18153 -8.64946,-6.96506 -33.26191,1.88987 -33.26191,1.88987 6.45791,-6.97676 3.61864,-6.70779 6.80356,-10.58334 4.73473,-0.70869 7.46975,-9.36629 -3.77976,-7.18154 -1.75046,2.18781 -3.56722,8.97302 -9.07144,17.00894 -0.26424,1.05697 0.82655,-3.65098 -1.88986,-9.8274 -4.03737,-9.17992 -9.78915,-1.52928 -5.29167,4.15775 3.73073,4.71749 3.16618,6.80357 2.64583,6.80357 z"
             inkscape:connector-curvature="0"
             id="path872"
             sodipodi:nodetypes="csscsscsscsscsscsscssccccssc" />
        </g>
        <path
           style="fill:#63975c;fill-opacity:1;fill-rule:evenodd;stroke:none;stroke-width:0.11731255px;stroke-linecap:butt;stroke-linejoin:miter;stroke-opacity:1"
           d="m 242.07064,215.87486 c 0,0 4.21989,0.50245 4.03842,-0.11654 -1.51716,-0.25087 1.72151,-18.08079 5.62215,-31.28152 2.92209,-9.88907 7.38068,-16.04999 8.47812,-14.75998 l -4.10497,-1.21158 c 1.12729,3.92285 -5.73605,7.34165 -6.78385,15.59802 -1.34398,10.59032 -6.1395,19.42948 -7.24987,31.7716 z"
           id="path884"
           inkscape:connector-curvature="0"
           sodipodi:nodetypes="ccsccsc" />
        <g
           id="g880"
           transform="matrix(0.6182744,0,0,0.6182744,42.906073,-25.181219)">
          <path
             sodipodi:nodetypes="aaaaa"
             inkscape:connector-curvature="0"
             id="path876"
             d="m 331.70419,308.32949 c 5.71473,-6.58362 20.40764,-5.35053 26.12479,1.23099 1.67111,1.92376 1.02586,5.74761 -0.71181,7.61147 -5.30023,5.68512 -16.63533,8.24131 -23.00755,3.79072 -3.5144,-2.45457 -5.21544,-9.39593 -2.40543,-12.63318 z"
             style="fill:#6a8437;fill-opacity:1;fill-rule:evenodd;stroke:none;stroke-width:0.30903068px;stroke-linecap:butt;stroke-linejoin:miter;stroke-opacity:1" />
          <path
             sodipodi:nodetypes="csscascsacsscsscsscsscc"
             id="path878"
             inkscape:connector-curvature="0"
             d="m 340.98773,304.59342 c 0,0 -21.17291,3.26298 -28.51004,5.08311 -7.8996,1.95966 -13.05025,12.91425 4.42818,6.04871 4.36733,-1.71549 19.91835,-7.74583 19.11494,-6.54072 -1.33203,-2.22004 -21.9283,10.09979 -28.01912,19.77315 -0.92386,1.46726 -2.57596,4.83113 -0.86781,5.12876 9.60943,1.67434 27.69269,-23.4823 27.37505,-19.98822 2.21099,4.2713 -19.07971,16.87377 -20.78327,21.92804 -0.90213,2.67652 1.44089,3.9054 3.13024,3.99481 11.14748,0.59 22.56657,-22.67381 23.32265,-24.03296 1.85538,1.4843 -8.56117,10.60115 -8.69344,17.38688 -0.24408,12.52168 7.93233,19.94762 10.96131,-1.5119 1.42424,-10.09038 1.73293,-15.60222 1.88987,-15.497 0.51634,-0.32271 3.19623,12.04399 3.71243,18.62943 1.30294,16.62234 15.22436,13.55485 6.4799,-2.53397 -1.29271,-2.37844 -4.71829,-17.78974 -4.52268,-17.98535 0.90937,-0.77946 8.08987,11.13448 10.29986,17.87674 4.66487,14.23167 12.9939,12.56626 7.88537,-4.69535 -3.62489,-12.24843 -16.15607,-19.36829 -17.42929,-18.09507 1.31627,-3.94881 21.47547,10.84508 25.80339,15.29063 2.38873,2.45365 4.346,-5.75508 -0.37795,-9.55908 -8.64946,-6.96506 -23.53554,-9.13335 -23.53554,-9.13335 -7.3299,0.8017 0.25196,-3.92137 -11.66405,-1.56729 z"
             style="fill:#78a126;fill-opacity:1;fill-rule:evenodd;stroke:none;stroke-width:0.26458332px;stroke-linecap:butt;stroke-linejoin:miter;stroke-opacity:1" />
        </g>
        <path
           style="fill:#62994c;fill-opacity:1;fill-rule:evenodd;stroke:none;stroke-width:0.16179922px;stroke-linecap:butt;stroke-linejoin:miter;stroke-opacity:1"
           d="m 267.86844,380.45424 c 9.08599,-8.11566 57.85388,-4.85007 62.53818,-0.10002 9.97548,10.11549 -19.35793,26.77621 -33.55597,26.27732 -13.01,-0.45715 -38.69117,-17.50521 -28.98221,-26.1773 z"
           id="path968"
           inkscape:connector-curvature="0"
           sodipodi:nodetypes="ssas" />
        <path
           sodipodi:nodetypes="ssas"
           inkscape:connector-curvature="0"
           id="path970"
           d="m 285.86075,390.39623 c 3.78205,-3.37814 24.0817,-2.01884 26.03154,-0.0416 4.1523,4.21058 -8.05774,11.14561 -13.96768,10.93794 -5.41542,-0.19029 -16.10521,-7.28655 -12.06386,-10.89631 z"
           style="fill:#3e7129;fill-opacity:1;fill-rule:evenodd;stroke:none;stroke-width:0.06734898px;stroke-linecap:butt;stroke-linejoin:miter;stroke-opacity:1" />
        <path
           sodipodi:nodetypes="csasc"
           inkscape:connector-curvature="0"
           id="path972"
           d="m 264.81036,279.44176 c 5.79639,-8.09091 26.39255,-4.8053 28.61242,0.47744 3.14135,7.47566 -5.80621,14.0222 -12.07018,14.46383 -7.41193,0.52257 -22.08385,-9.99149 -16.54224,-14.94128 z"
           style="fill:#62994c;fill-opacity:1;fill-rule:evenodd;stroke:none;stroke-width:0.09235051px;stroke-linecap:butt;stroke-linejoin:miter;stroke-opacity:1" />
        <path
           style="fill:#3e7129;fill-opacity:1;fill-rule:evenodd;stroke:none;stroke-width:0.03844093px;stroke-linecap:butt;stroke-linejoin:miter;stroke-opacity:1"
           d="m 275.07987,285.11638 c 2.15869,-3.76165 9.73613,-3.71124 10.84904,-0.15743 1.00871,3.22107 -1.48515,6.02734 -3.96332,6.3767 -3.06259,0.43175 -9.19241,-4.15896 -6.88572,-6.21931 z"
           id="path974"
           inkscape:connector-curvature="0"
           sodipodi:nodetypes="csasc" />
        <path
           style="fill:#62994c;fill-opacity:1;fill-rule:evenodd;stroke:none;stroke-width:0.06901363px;stroke-linecap:butt;stroke-linejoin:miter;stroke-opacity:1"
           d="m 222.80719,261.6232 c 0.20075,-7.70176 18.05638,-8.89573 20.52775,-6.32353 4.1984,4.36967 -1.90716,15.99758 -8.16572,17.48913 -6.97481,-0.29521 -10.81846,-5.76321 -12.36203,-11.1656 z"
           id="path976"
           inkscape:connector-curvature="0"
           sodipodi:nodetypes="cscc" />
        <path
           sodipodi:nodetypes="ssss"
           inkscape:connector-curvature="0"
           id="path978"
           d="m 230.4816,265.86385 c -1.5836,-2.19015 4.93772,-5.82325 9.23257,-3.22503 2.15819,1.30561 -1.14035,8.11857 -4.08686,7.87269 -2.78942,-0.23277 -3.57766,-2.47902 -5.14571,-4.64766 z"
           style="fill:#3e7129;fill-opacity:1;fill-rule:evenodd;stroke:none;stroke-width:0.02872694px;stroke-linecap:butt;stroke-linejoin:miter;stroke-opacity:1" />
        <path
           style="fill:none;fill-rule:evenodd;stroke:#33783a;stroke-width:1.32291663;stroke-linecap:butt;stroke-linejoin:miter;stroke-miterlimit:4;stroke-dasharray:none;stroke-opacity:1"
           d="m 105.30419,297.71126 c 24.31858,-7.26019 38.74611,-23.65117 60.40291,-36.8832 29.11827,-17.79089 93.00979,-42.76312 93.00979,-42.76312"
           id="path984"
           inkscape:connector-curvature="0"
           sodipodi:nodetypes="csc" />
        <path
           sodipodi:nodetypes="csssc"
           inkscape:connector-curvature="0"
           id="path980"
           d="m 191.80393,234.89625 c 3.87552,-3.46164 21.25242,-1.6896 21.85575,1.09123 1.03269,4.75976 -3.37855,10.29739 -9.49372,10.07437 -5.54901,-0.20237 -16.50328,-7.46665 -12.36203,-11.16564 z"
           style="fill:#62994c;fill-opacity:1;fill-rule:evenodd;stroke:none;stroke-width:0.06901363px;stroke-linecap:butt;stroke-linejoin:miter;stroke-opacity:1" />
        <path
           style="fill:#3e7129;fill-opacity:1;fill-rule:evenodd;stroke:none;stroke-width:0.02872694px;stroke-linecap:butt;stroke-linejoin:miter;stroke-opacity:1"
           d="m 199.47834,239.1369 c 1.61319,-1.44091 6.86999,-0.10517 7.70167,0.73815 1.77112,1.79598 -1.01185,3.70985 -2.55596,3.90951 -2.29223,0.29639 -6.8695,-3.108 -5.14571,-4.6477 z"
           id="path982"
           inkscape:connector-curvature="0"
           sodipodi:nodetypes="csasc" />
        <path
           sodipodi:nodetypes="ccsc"
           inkscape:connector-curvature="0"
           id="path986"
           d="m 29.934185,284.34779 c 27.744784,-6.27315 55.747886,18.84067 75.370005,13.89801 24.31858,-7.26019 44.0915,11.09387 65.7483,-2.13816 29.11827,-17.79089 205.26299,-42.76312 205.26299,-42.76312"
           style="fill:none;fill-rule:evenodd;stroke:#48904f;stroke-width:1.32291663;stroke-linecap:butt;stroke-linejoin:miter;stroke-miterlimit:4;stroke-dasharray:none;stroke-opacity:1" />
        <path
           sodipodi:nodetypes="cc"
           inkscape:connector-curvature="0"
           id="path990"
           d="m 144.32554,299.31488 c 75.43365,63.68718 211.52185,62.40296 271.01129,108.51143"
           style="fill:none;fill-rule:evenodd;stroke:#48904f;stroke-width:1.32291663;stroke-linecap:butt;stroke-linejoin:miter;stroke-miterlimit:4;stroke-dasharray:none;stroke-opacity:1" />
        <path
           style="fill:#c4ff66;fill-opacity:1;fill-rule:evenodd;stroke:none;stroke-width:0.26458332px;stroke-linecap:butt;stroke-linejoin:miter;stroke-opacity:1"
           d="m 323.16963,453.00448 c 28.68727,13.52319 51.39059,9.89718 69.94132,4.59959 32.72991,-9.34678 52.732,-80.61938 43.07356,-107.59811 -5.92712,-16.55611 18.84197,33.56904 10.58332,52.16071 -18.24884,41.08134 -14.36308,120.95238 -14.36308,120.95238 l -203.35119,5.29167 C 89.066977,255.73623 203.34066,419.60304 323.16963,453.00448 Z"
           id="path1006"
           inkscape:connector-curvature="0"
           sodipodi:nodetypes="csssccc"
           clip-path="url(#clipPath1014)" />
      </g>
    </g>
  </g>
</svg>
